# xmcd
#
# Track frame offsets: 
#        183
#        42090
#        70628
#        96408
#        156933
#
# Disc length: 2539 seconds
#
# Revision: 1
# Processed by: cddbd v1.5.2PL0 Copyright (c) Steve Scherf et al.
# Submitted via: ExactAudioCopy v0.99pb4
#
DISCID=3909e905
DTITLE=Mal Waldron Trio - Our Colline's A Treasure
DYEAR=1991
DGENRE=Jazz
TTITLE0=Spaces
TTITLE1=Our Colline's A Treasure
TTITLE2=Chez Pascale
TTITLE3=The Git Go
TTITLE4=Because Of You I Live Again
EXTD=YEAR: 1991
EXTT0=
EXTT1=
EXTT2=
EXTT3=
EXTT4=
PLAYORDER=
